<?xml version="1.0" encoding="utf-8"?>
<!-- Generator: Adobe Illustrator 16.0.0, SVG Export Plug-In . SVG Version: 6.00 Build 0)  -->
<!DOCTYPE svg PUBLIC "-//W3C//DTD SVG 1.1//EN" "http://www.w3.org/Graphics/SVG/1.1/DTD/svg11.dtd">
<svg version="1.1" id="Layer_1" xmlns="http://www.w3.org/2000/svg" xmlns:xlink="http://www.w3.org/1999/xlink" x="0px" y="0px"
	 width="900px" height="117px" viewBox="0 0 900 117" enable-background="new 0 0 900 117" xml:space="preserve">
<g transform="translate(0.000000,117.000000) scale(0.100000,-0.100000)">
	<path fill="#3C1218" d="M1932.998,710l-1460.996-5l-26.001-23.999c-33.999-32.002-33.999-73.003,0-100
		C472.002,560.996,482.998,560,870,560c410,0,731.001-57.002,1130-60.996c541.001-6.006,1453.999-49.004,3550-47.002
		c2737.998,2.998,2835.996,3.994,2877.998,22.002c37.002,15.996,42.002,21.992,42.002,50c0,37.998-32.002,77.998-85,104.995
		C8345.995,650,8339.003,650,7215,650c-932.002,0-1219.004,60-2565,62.002C3960,713.999,2737.002,712.998,1932.998,710z"/>
</g>
</svg>
