<?xml version="1.0" encoding="utf-8"?>
<!-- Generator: Adobe Illustrator 16.0.0, SVG Export Plug-In . SVG Version: 6.00 Build 0)  -->
<!DOCTYPE svg PUBLIC "-//W3C//DTD SVG 1.1//EN" "http://www.w3.org/Graphics/SVG/1.1/DTD/svg11.dtd">
<svg version="1.1" id="Layer_1" xmlns="http://www.w3.org/2000/svg" xmlns:xlink="http://www.w3.org/1999/xlink" x="0px" y="0px"
	 width="300px" height="58px" viewBox="0 0 300 58" enable-background="new 0 0 300 58" xml:space="preserve">
<g transform="translate(0.000000,58.000000) scale(0.050000,-0.050000)">
	<path fill="#3C1218" d="M300,670c-72.998-38.008-130.996-115.996-112.998-145c10-16.992,1282.998-13.008,1310,3.008
		c30,18.984,392.002,16.992,442.998-2.012c37.998-14.004,3519.999,40,3674.999,54.004c15.996,0.996,48.594,7.656,44.59,33.652
		c-7.988,57.998-293.594,53.35-1214.59,51.348C4110,663.994,3519.004,625.996,3145,625c-594.004-1.006-1529.004,32.002-2485,65
		C400,670,367.002,706.992,300,670z"/>
</g>
</svg>
